<svg width="22" height="18" viewBox="0 0 22 18" fill="none" xmlns="http://www.w3.org/2000/svg">
<g clip-path="url(#clip0)">
<path d="M13.7002 6.52142C13.4224 6.52142 13.1973 6.71012 13.1973 6.94296V14.9102C13.1973 15.1428 13.4224 15.3317 13.7002 15.3317C13.978 15.3317 14.2032 15.1428 14.2032 14.9102V6.94296C14.2032 6.71012 13.978 6.52142 13.7002 6.52142Z" fill="white"/>
<path d="M7.7654 6.52142C7.4876 6.52142 7.26245 6.71012 7.26245 6.94296V14.9102C7.26245 15.1428 7.4876 15.3317 7.7654 15.3317C8.0432 15.3317 8.26834 15.1428 8.26834 14.9102V6.94296C8.26834 6.71012 8.0432 6.52142 7.7654 6.52142Z" fill="white"/>
<path d="M3.44016 5.35871V15.7447C3.44016 16.3585 3.70873 16.935 4.17788 17.3487C4.64487 17.7635 5.29477 17.9989 5.97492 17.9999H15.4908C16.1711 17.9989 16.821 17.7635 17.2878 17.3487C17.757 16.935 18.0256 16.3585 18.0256 15.7447V5.35871C18.9582 5.15123 19.5625 4.39607 19.4377 3.59398C19.3128 2.79206 18.4977 2.19218 17.5326 2.19202H14.9576V1.66509C14.9605 1.22197 14.7515 0.796475 14.3772 0.483445C14.003 0.17058 13.4945 -0.00363592 12.9658 -1.32771e-05H8.49986C7.97118 -0.00363592 7.46274 0.17058 7.08847 0.483445C6.71421 0.796475 6.50518 1.22197 6.50812 1.66509V2.19202H3.93309C2.96806 2.19218 2.15294 2.79206 2.02799 3.59398C1.90324 4.39607 2.50755 5.15123 3.44016 5.35871ZM15.4908 17.1568H5.97492C5.11501 17.1568 4.44605 16.5377 4.44605 15.7447V5.39575H17.0197V15.7447C17.0197 16.5377 16.3507 17.1568 15.4908 17.1568ZM7.51401 1.66509C7.51067 1.44559 7.61362 1.23432 7.79947 1.07937C7.98513 0.92442 8.23778 0.839288 8.49986 0.843076H12.9658C13.2279 0.839288 13.4806 0.92442 13.6662 1.07937C13.8521 1.23416 13.955 1.44559 13.9517 1.66509V2.19202H7.51401V1.66509ZM3.93309 3.03511H17.5326C18.0326 3.03511 18.4379 3.37481 18.4379 3.79389C18.4379 4.21296 18.0326 4.55267 17.5326 4.55267H3.93309C3.43309 4.55267 3.02779 4.21296 3.02779 3.79389C3.02779 3.37481 3.43309 3.03511 3.93309 3.03511Z" fill="white"/>
<path d="M10.7327 6.52142C10.4549 6.52142 10.2297 6.71012 10.2297 6.94296V14.9102C10.2297 15.1428 10.4549 15.3317 10.7327 15.3317C11.0105 15.3317 11.2356 15.1428 11.2356 14.9102V6.94296C11.2356 6.71012 11.0105 6.52142 10.7327 6.52142Z" fill="white"/>
</g>
<defs>
<clipPath id="clip0">
<rect width="21.4758" height="18" fill="white"/>
</clipPath>
</defs>
</svg>
