<svg width="22" height="18" viewBox="0 0 22 18" fill="none" xmlns="http://www.w3.org/2000/svg">
<g clip-path="url(#clip0)">
<path d="M19.8213 11.3075C19.5259 11.3075 19.2865 11.5081 19.2865 11.7558V15.7361C19.2854 16.4786 18.5677 17.0803 17.6819 17.081H2.67429C1.78843 17.0803 1.07076 16.4786 1.06972 15.7361V4.05404C1.07076 3.31173 1.78843 2.71004 2.67429 2.70916H7.42325C7.71868 2.70916 7.95811 2.50848 7.95811 2.26087C7.95811 2.01343 7.71868 1.81258 7.42325 1.81258H2.67429C1.198 1.81398 0.00167143 2.81668 0 4.05404V15.7363C0.00167143 16.9736 1.198 17.9763 2.67429 17.9778H17.6819C19.1582 17.9763 20.3545 16.9736 20.3562 15.7363V11.7558C20.3562 11.5081 20.1167 11.3075 19.8213 11.3075Z" fill="white"/>
<path d="M18.951 2.6591C18.011 1.87126 16.4871 1.87126 15.5471 2.6591L6.00487 10.6569C5.93948 10.7117 5.89226 10.7797 5.86761 10.8543L4.61278 14.6513C4.56117 14.807 4.61361 14.9737 4.74984 15.088C4.88627 15.2022 5.08517 15.2462 5.27091 15.2031L9.80112 14.1512C9.89012 14.1305 9.97118 14.0909 10.0366 14.0361L19.5786 6.03811C20.5171 5.24975 20.5171 3.97351 19.5786 3.18515L18.951 2.6591ZM7.17028 10.9483L14.9798 4.40254L17.4985 6.51355L9.68871 13.0593L7.17028 10.9483ZM6.66718 11.7945L8.67937 13.4812L5.89602 14.1275L6.66718 11.7945ZM18.8223 5.4042L18.255 5.87963L15.7362 3.76845L16.3036 3.29302C16.8257 2.85541 17.6723 2.85541 18.1944 3.29302L18.8223 3.81906C19.3435 4.2572 19.3435 4.96624 18.8223 5.4042Z" fill="white"/>
</g>
<defs>
<clipPath id="clip0">
<rect width="21.4758" height="18" fill="white"/>
</clipPath>
</defs>
</svg>
