<svg width="23" height="19" viewBox="0 0 23 19" fill="none" xmlns="http://www.w3.org/2000/svg">
<g clip-path="url(#clip0)">
<path d="M22.2151 15.6824L19.218 13.1704C18.9032 12.9066 18.4341 12.8284 18.0228 12.9712C17.6115 13.1139 17.3458 13.4473 17.3458 13.8204V14.1981C17.3458 14.2876 17.2589 14.3604 17.1522 14.3604H16.8491V3.89839C16.8491 3.79802 16.8015 3.70173 16.7168 3.63076L12.5172 0.110843C12.4325 0.0398772 12.3176 -1.52588e-05 12.1979 -1.52588e-05H0.773105C0.523702 -1.52588e-05 0.321533 0.169433 0.321533 0.378471V18.6215C0.321533 18.8305 0.523702 19 0.773105 19H16.3975C16.6469 19 16.8491 18.8305 16.8491 18.6215V17.5397H17.1522C17.2589 17.5397 17.3458 17.6125 17.3458 17.7019V18.0797C17.3458 18.4528 17.6115 18.7861 18.0228 18.9289C18.1593 18.9763 18.3022 18.9993 18.4436 18.9993C18.7285 18.9993 19.0077 18.9059 19.218 18.7297L22.2151 16.2177C22.2998 16.1467 22.3474 16.0504 22.3474 15.95C22.3474 15.8497 22.2998 15.7534 22.2151 15.6824ZM12.6494 1.29221L15.3073 3.51991H12.6494V1.29221ZM15.9459 18.243H1.22468V0.756957H11.7463V3.89839C11.7463 4.10743 11.9485 4.27688 12.1979 4.27688H15.9459V14.3604H14.9976C14.7482 14.3604 14.546 14.5298 14.546 14.7389V17.1612C14.546 17.3702 14.7482 17.5397 14.9976 17.5397H15.9459V18.243ZM18.5794 18.1944C18.4998 18.2611 18.4131 18.2451 18.3684 18.2296C18.3238 18.2141 18.2489 18.174 18.2489 18.0797V17.7019C18.2489 17.1951 17.7569 16.7827 17.1522 16.7827H15.4492V15.1174H17.1522C17.7569 15.1174 18.2489 14.705 18.2489 14.1981V13.8204C18.2489 13.7261 18.3238 13.686 18.3684 13.6705C18.413 13.655 18.4998 13.639 18.5794 13.7057L21.2572 15.95L18.5794 18.1944Z" fill="white"/>
<path d="M3.50504 6.58564H10.9785C11.228 6.58564 11.4301 6.41619 11.4301 6.20715C11.4301 5.99811 11.228 5.82867 10.9785 5.82867H3.50504C3.25564 5.82867 3.05347 5.99811 3.05347 6.20715C3.05347 6.41619 3.25564 6.58564 3.50504 6.58564Z" fill="white"/>
<path d="M13.6654 8.32666H3.50504C3.25564 8.32666 3.05347 8.49611 3.05347 8.70515C3.05347 8.91418 3.25564 9.08363 3.50504 9.08363H13.6654C13.9148 9.08363 14.117 8.91418 14.117 8.70515C14.117 8.49611 13.9148 8.32666 13.6654 8.32666Z" fill="white"/>
<path d="M13.6654 10.8247H3.50504C3.25564 10.8247 3.05347 10.9941 3.05347 11.2032C3.05347 11.4122 3.25564 11.5816 3.50504 11.5816H13.6654C13.9148 11.5816 14.117 11.4122 14.117 11.2032C14.117 10.9941 13.9148 10.8247 13.6654 10.8247Z" fill="white"/>
<path d="M13.6654 13.3227H3.50504C3.25564 13.3227 3.05347 13.4921 3.05347 13.7012C3.05347 13.9102 3.25564 14.0797 3.50504 14.0797H13.6654C13.9148 14.0797 14.117 13.9102 14.117 13.7012C14.117 13.4921 13.9148 13.3227 13.6654 13.3227Z" fill="white"/>
<path d="M13.6652 5.82867H12.6718C12.4224 5.82867 12.2202 5.99811 12.2202 6.20715C12.2202 6.41619 12.4224 6.58564 12.6718 6.58564H13.6652C13.9146 6.58564 14.1168 6.41619 14.1168 6.20715C14.1168 5.99811 13.9146 5.82867 13.6652 5.82867Z" fill="white"/>
</g>
<defs>
<clipPath id="clip0">
<rect width="22.6689" height="19" fill="white"/>
</clipPath>
</defs>
</svg>
