<svg width="19" height="19" viewBox="0 0 19 19" fill="none" xmlns="http://www.w3.org/2000/svg">
<g clip-path="url(#clip0)">
<path d="M9.49998 -1.52588e-05C4.26872 -1.52588e-05 0 4.26937 0 9.49997C0 14.7312 4.26939 19 9.49998 19C14.7312 19 19 14.7306 19 9.49997C19 4.26871 14.7306 -1.52588e-05 9.49998 -1.52588e-05ZM9.49998 17.8867C4.87553 17.8867 1.11328 14.1244 1.11328 9.49997C1.11328 4.87552 4.87553 1.11326 9.49998 1.11326C14.1244 1.11326 17.8867 4.87552 17.8867 9.49997C17.8867 14.1244 14.1244 17.8867 9.49998 17.8867Z" fill="white"/>
<path d="M15.3919 5.31273L15.0101 4.77702L4.7771 15.0102C5.53895 15.5531 7.02477 16.7363 9.50004 16.7363C13.4901 16.7363 16.7364 13.4901 16.7364 9.49996C16.7364 7.99488 16.2715 6.54694 15.3919 5.31273ZM9.50004 15.623C8.44929 15.623 7.43108 15.3546 6.51986 14.8418L14.8418 6.51978C15.3547 7.43096 15.6231 8.4492 15.6231 9.49996C15.6231 12.8762 12.8763 15.623 9.50004 15.623Z" fill="white"/>
<path d="M9.49999 2.26363C5.50988 2.26363 2.26367 5.50985 2.26367 9.49995C2.26367 11.005 2.72854 12.4529 3.60803 13.6872L3.98977 14.2229L14.223 3.98974C13.4611 3.44679 11.9753 2.26363 9.49999 2.26363ZM3.37695 9.49995C3.37695 6.12371 6.12375 3.37691 9.49999 3.37691C10.5507 3.37691 11.5689 3.64529 12.4802 4.15814L4.15818 12.4801C3.64529 11.5689 3.37695 10.5507 3.37695 9.49995Z" fill="white"/>
</g>
<defs>
<clipPath id="clip0">
<rect width="19" height="19" fill="white"/>
</clipPath>
</defs>
</svg>
