<svg width="10" height="9" viewBox="0 0 10 9" fill="none" xmlns="http://www.w3.org/2000/svg">
<path d="M9.64245 8.36071L6.86649 5.80136C7.40419 5.189 7.72795 4.41087 7.72795 3.56339C7.72795 1.59916 5.99444 0.000915527 3.86397 0.000915527C1.73349 0.000915527 0 1.59914 0 3.56337C0 5.5276 1.73351 7.12584 3.86398 7.12584C4.7832 7.12584 5.62718 6.82735 6.29137 6.3316L9.06733 8.89095C9.14665 8.96407 9.25076 9.00083 9.3549 9.00083C9.45904 9.00083 9.56315 8.96407 9.64247 8.89095C9.80149 8.74433 9.80149 8.50733 9.64245 8.36071ZM3.86398 6.37584C2.18172 6.37584 0.813475 5.11436 0.813475 3.56337C0.813475 2.01238 2.18172 0.750897 3.86398 0.750897C5.54624 0.750897 6.91449 2.01238 6.91449 3.56337C6.91449 5.11436 5.54623 6.37584 3.86398 6.37584Z" fill="white"/>
</svg>
